<?xml version="1.0" encoding="utf-8" ?>
<svg baseProfile="full" height="200mm" version="1.1" viewBox="0,0,200,200" width="200mm" xmlns="http://www.w3.org/2000/svg" xmlns:ev="http://www.w3.org/2001/xml-events" xmlns:xlink="http://www.w3.org/1999/xlink"><defs /><rect fill="#1a1a1a" height="200" width="200" x="0" y="0" /><text alignment-baseline="middle" fill="#e1ed5e" style="dominant-baseline: central; font-size:9.0px; font-family:Arial;" text-anchor="middle" x="100.0" y="100.0">2026</text><line stroke="#e1ed5e" stroke-width="0.3" x1="100.0" x2="100.0" y1="15.0" y2="10.0" /><path d="M 100.0 14.0 a86.0,86.0 0 0,1 42.46469731375804,11.215312516191453" fill="none" id="id109" stroke="none" /><text fill="#e1ed5e" style="font-size:6.75px; font-family:Arial;" text-anchor="middle"><textPath startOffset="22.20632615414155" xlink:href="#id109">January</textPath></text><path d="M 100.72285384407766 79.0124445844662 l 0.9792473320362602 -28.43176088085742 a49.448619511736496,49.448619511736496 0 0,0 0.8504201077312101,0.036620878745122126 l -1.468508272156802 28.410692275588104" fill="#acff20" stroke="none" /><path d="M 102.88285421437855 79.19881850522331 l 2.1365952964943618 -15.416564015480706 a36.563916136513214,36.563916136513214 0 0,0 0.6226852670201117,0.09176762195571429 l -2.4016495439431296 15.377501909364023" fill="#ffb010" stroke="none" /><path d="M 104.307194497241 79.44645832069477 l 1.8567584772336587 -8.86028313201802 a30.052743740010655,30.052743740010655 0 0,0 0.5053973862349657,0.11046029342441176 l -2.0089985876221523 8.827009340497737" fill="#ff5607" stroke="none" /><path d="M 104.66035177308747 79.52364482259891 l 0.7198243942439794 -3.1627183267610928 a24.243598984612493,24.243598984612493 0 0,0 0.40611066026505194,0.09611327237554648 l -0.774158741471555 3.1498591422446776" fill="#ff0000" stroke="none" /><path d="M 106.74666289553966 80.11325718540242 l 4.989521527967031 -14.707320186425505 a36.53063399041023,36.53063399041023 0 0,0 0.5937410849478513,0.20714460612649563 l -5.241944616978155 14.619254727126801" fill="#ffb010" stroke="none" /><line stroke="#e1ed5e" stroke-width="0.3" x1="143.23703022742887" x2="145.7803849466894" y1="26.81831364943548" y2="22.513508569990506" /><path d="M 143.74570117128098 25.957352633546492 a86.0,86.0 0 0,1 28.547481713284135,27.462654790039103" fill="none" id="id110" stroke="none" /><text fill="#e1ed5e" style="font-size:6.75px; font-family:Arial;" text-anchor="middle"><textPath startOffset="19.985693538727396" xlink:href="#id110">February</textPath></text><path d="M 111.2981086023043 82.29822771554956 l 8.116865762958813 -12.717430364410227 a36.08696605973236,36.08696605973236 0 0,0 0.5207400312144016,0.3387038016281832 l -8.334572819957495 12.575827638622515" fill="#ffaa0f" stroke="none" /><path d="M 112.19680574252982 82.90503203632743 l 8.327746538960069 -11.672118364293894 a35.338399824500925,35.338399824500925 0 0,0 0.4921371686303689,0.35755858262210666 l -8.527429023944226 11.527040546855112" fill="#ffa00e" stroke="none" /><path d="M 113.06298171725822 83.55741782278167 l 15.798884027466514 -19.88630578780937 a46.39822620577266,46.39822620577266 0 0,0 0.6210658904323171,0.5021920911586573 l -16.138853316463322 19.611407599386585" fill="#d0ff1d" stroke="none" /><path d="M 114.16331599549186 84.49514656593476 l 5.745272982040603 -6.289460430988639 a29.51853708984926,29.51853708984926 0 0,0 0.3722036144429281,0.34592269540940623 l -5.852684480278378 6.1896331495045915" fill="#ff4e07" stroke="none" /><path d="M 116.15771136456269 86.58626213691792 l 9.026958295514701 -7.493960595346078 a32.732238553386196,32.732238553386196 0 0,0 0.3561602793887358,0.4366103896651195 l -9.154617066979846 7.337466036072858" fill="#ff7c0b" stroke="none" /><path d="M 116.82858285166822 87.43820079747576 l 22.82360962911161 -17.03682382318235 a49.481055501582624,49.481055501582624 0 0,0 0.5036167396655488,0.6869326669279329 l -23.113488981290786 16.641428712582922" fill="#acff21" stroke="none" /><path d="M 117.45458315368197 88.32363383020206 l 14.243236177233047 -9.528113022464467 a38.136356513836226,38.136356513836226 0 0,0 0.3603038784540393,0.5487675259137464 l -14.405136691045012 9.281527432573048" fill="#ffc512" stroke="none" /><line stroke="#e1ed5e" stroke-width="0.3" x1="172.23445277983987" x2="176.4835382374775" y1="55.19839476539836" y2="52.563006222186495" /><path d="M 173.08426987136738 54.67131705675599 a86.0,86.0 0 0,1 12.851231095245387,41.99856678651699" fill="none" id="id111" stroke="none" /><text fill="#e1ed5e" style="font-size:6.75px; font-family:Arial;" text-anchor="middle"><textPath startOffset="22.20632615414155" xlink:href="#id111">March</textPath></text><path d="M 118.3937258080291 89.86733742301442 l 30.40161393699128 -16.747520270463504 a55.709329656209846,55.709329656209846 0 0,0 0.4554686047590389,0.8439141509257796 l -30.685390640968784 16.221725136205265" fill="#66ff29" stroke="none" /><path d="M 119.196687751892 91.48605970444005 l 18.377728311036638 -8.150722855445018 a41.10410855871385,41.10410855871385 0 0,0 0.28128772683438846,0.6492508557109774 l -18.515306747713705 7.8331728551474376" fill="#ffec16" stroke="none" /><path d="M 119.34039704204932 91.81776055985345 l 17.78693445723713 -7.525024244274047 a40.31323451063963,40.31323451063963 0 0,0 0.26487390923519943,0.6414131808230568 l -17.913830053358527 7.2177364929976875" fill="#ffe215" stroke="none" /><path d="M 119.61058180528143 92.48833698450437 l 58.83174541584429 -22.534989046486903 a84.0,84.0 0 0,0 0.505581645993499,1.354707451882667 l -59.21093165033941 21.518958457574904" fill="#4dd2ff" stroke="none" /><path d="M 120.28053869075195 94.5502522615342 l 15.515820143478726 -4.169381643492729 a37.06625090099972,37.06625090099972 0 0,0 0.16027388312507013,0.6176006515125212 l -15.585290358474097 3.901684566431357" fill="#ffb711" stroke="none" /><path d="M 120.53481517161879 95.60439243477599 l 16.432963707803765 -3.5175802163005163 a37.80522736532013,37.80522736532013 0 0,0 0.13073534425538924,0.6375119683017628 l -16.491078347974153 3.234192591835342" fill="#ffc111" stroke="none" /><path d="M 120.67395015179393 96.31383870115 l 28.735257031046512 -5.123490750564645 a50.18844213231377,50.18844213231377 0 0,0 0.14432317112240176,0.8518035256307047 l -28.819192063689137 4.628101436618103" fill="#a4ff21" stroke="none" /><path d="M 120.73433829027371 96.67025291283417 l 15.196034761603745 -2.44034566117098 a36.390736155943465,36.390736155943465 0 0,0 0.0939991890412057,0.6193372096590354 l -15.23578984408425 2.1784093391198627" fill="#ffae10" stroke="none" /><path d="M 120.78858239683441 97.02765380044208 l 31.267614596546903 -4.470635546050503 a52.58560280798521,52.58560280798521 0 0,0 0.12040600833159108,0.8971646170273325 l -31.33993660393633 3.9317525869585066" fill="#88ff25" stroke="none" /><path d="M 120.83666639777658 97.38593545837742 l 21.291902636639552 -2.6711762161752928 a42.458804725939395,42.458804725939395 0 0,0 0.08473492942636528,0.725957128575756 l -21.334727919069508 2.304275349274684" fill="#fffd17" stroke="none" /><path d="M 120.87857604477298 97.74499172005257 l 15.208926057999417 -1.6426529336268154 a36.29737691560375,36.29737691560375 0 0,0 0.06174507779147081,0.6217645070374597 l -15.234948261473116 1.3806128958849209" fill="#ffad10" stroke="none" /><path d="M 120.98425023603335 99.18683210126433 l 14.156850812658613 -0.5485969952967942 a35.16747626061613,35.16747626061613 0 0,0 0.018234010797592248,0.6050980482230128 l -14.16419651791185 0.3048287996487823" fill="#ff9d0e" stroke="none" /><line stroke="#e1ed5e" stroke-width="0.3" x1="184.98032266829074" x2="189.97916517819016" y1="98.17113171792111" y2="98.06355123074" /><path d="M 185.9800911702706 98.14961562048488 a86.0,86.0 0 0,1 -9.607161424134198,41.387399972396054" fill="none" id="id112" stroke="none" /><text fill="#e1ed5e" style="font-size:6.75px; font-family:Arial;" text-anchor="middle"><textPath startOffset="21.466115282336823" xlink:href="#id112">April</textPath></text><path d="M 120.99980553446 99.90962569577887 l 5.440452299004742 -0.023413411632025594 a26.440502679494813,26.440502679494813 0 0,0 -0.001958741032637758,0.45514243381749775 l -5.440049260682602 -0.07023850038915685" fill="#ff2103" stroke="none" /><path d="M 120.95626037817324 101.35467743843564 l 18.379076527991966 1.1880803092943393 a39.41743708671535,39.41743708671535 0 0,0 -0.04959734935538017,0.6767164266766368 l -18.355902619972248 -1.5042698724677463" fill="#ffd614" stroke="none" /><path d="M 120.89721153311464 102.0752229133903 l 27.637444730608017 2.7445699385121456 a48.773386818765864,48.773386818765864 0 0,0 -0.09015574401444874,0.8347302198476325 l -27.586106685092517 -3.2198964802445693" fill="#b4ff20" stroke="none" /><path d="M 120.81339534386255 102.79330883721812 l 11.489052375336204 1.541914281696081 a32.59205866683381,32.59205866683381 0 0,0 -0.07940969576243594,0.5553912272098391 l -11.460808628557166 -1.7394509808863294" fill="#ff7a0b" stroke="none" /><path d="M 120.76222939487914 103.15116336523771 l 15.63587923335918 2.3731174955419205 a36.814942492713655,36.814942492713655 0 0,0 -0.10048418652249533,0.6257151253952248 l -15.592713292475397 -2.64191185063035" fill="#ffb410" stroke="none" /><path d="M 120.49622156327973 104.57218783832717 l 14.150241277145783 3.156560387338453 a35.49804130496098,35.49804130496098 0 0,0 -0.1381709431829224,0.5952368069624767 l -14.093809768032308 -3.3996658516494946" fill="#ffa20f" stroke="none" /><path d="M 120.32669344350535 105.2749913415812 l 14.753672368035076 3.828733591826624 a36.24237675890815,36.24237675890815 0 0,0 -0.16190319436663042,0.6025020157048868 l -14.685581097326668 -4.082126540707059" fill="#ffac0f" stroke="none" /><path d="M 120.02730092923936 106.31721596034902 l 27.248724427495283 8.595071171133752 a49.572158325237396,49.572158325237396 0 0,0 -0.2636949627989753,0.811569645842453 l -27.09673721368006 -9.062839716953999" fill="#abff21" stroke="none" /><path d="M 119.9155931802556 106.66101706037122 l 15.681179084261553 5.244764766060662 a37.535021467297625,37.535021467297625 0 0,0 -0.21021250882366038,0.6109759489357823 l -15.58857574449466 -5.513913418085745" fill="#ffbd11" stroke="none" /><path d="M 119.26925614724726 108.34839909993367 l 11.806746848458614 5.115269318628968 a33.867216145914945,33.867216145914945 0 0,0 -0.23635916483413405,0.5329275197037762 l -11.716946598893207 -5.317745174825432" fill="#ff8b0c" stroke="none" /><path d="M 119.12269723197855 108.67885076344098 l 27.098970531548055 12.29888850056623 a50.75931555360557,50.75931555360557 0 0,0 -0.3679455361474055,0.7925219508899429 l -26.88325037856082 -12.763530518735003" fill="#9dff22" stroke="none" /><path d="M 118.81262510543309 109.33194174019688 l 15.660946307040762 7.768561682093402 a38.48187031871886,38.48187031871886 0 0,0 -0.2994646874570156,0.5908722385749521 l -15.524902949797477 -8.036988132371048" fill="#ffca12" stroke="none" /><path d="M 118.64920377521936 109.65438752849418 l 4.872556704190158 2.52244284763095 a26.486759221536243,26.486759221536243 0 0,0 -0.21308912074903485,0.4030843117253263 l -4.82841507521623 -2.605942174442411" fill="#ff2203" stroke="none" /><line stroke="#e1ed5e" stroke-width="0.3" x1="174.80103733775053" x2="179.2010983576182" y1="140.37084112569926" y2="142.7455964860345" /><path d="M 175.68104954172406 140.8457921977663 a86.0,86.0 0 0,1 -30.038265399797805,32.042727171017184" fill="none" id="id113" stroke="none" /><text fill="#e1ed5e" style="font-size:6.75px; font-family:Arial;" text-anchor="middle"><textPath startOffset="22.206326154141568" xlink:href="#id113">May</textPath></text><path d="M 113.20401910651253 116.32954008644616 l 7.7939081006211355 9.638802680647236 a33.39562505876086,33.39562505876086 0 0,0 -0.45011340232871105,0.35759730934837564 l -7.6268372055750735 -9.771533904000737" fill="#ff850c" stroke="none" /><line stroke="#e1ed5e" stroke-width="0.3" x1="143.8653032363475" x2="146.44561519142675" y1="172.8068346515853" y2="177.08958963109032" /><path d="M 144.38136562736335 173.6633856474863 a86.0,86.0 0 0,1 -40.68145358897372,12.25698825130547" fill="none" id="id114" stroke="none" /><text fill="#e1ed5e" style="font-size:6.75px; font-family:Arial;" text-anchor="middle"><textPath startOffset="21.466115282336833" xlink:href="#id114">June</textPath></text><line stroke="#e1ed5e" stroke-width="0.3" x1="102.19456741930631" x2="102.32365962044197" y1="184.97166512339345" y2="189.96999836594603" /><path d="M 102.22038585953345 185.97133177190398 a86.0,86.0 0 0,1 -42.740103519485714,-10.115201625700543" fill="none" id="id115" stroke="none" /><text fill="#e1ed5e" style="font-size:6.75px; font-family:Arial;" text-anchor="middle"><textPath startOffset="22.20632615414155" xlink:href="#id115">July</textPath></text><line stroke="#e1ed5e" stroke-width="0.3" x1="58.666819895761336" x2="56.23545636021788" y1="174.27360380694188" y2="178.64263932499728" /><path d="M 58.180547188652646 175.14741091055294 a86.0,86.0 0 0,1 -31.652253787137756,-30.449443065178592" fill="none" id="id116" stroke="none" /><text fill="#e1ed5e" style="font-size:6.75px; font-family:Arial;" text-anchor="middle"><textPath startOffset="22.20632615414155" xlink:href="#id116">August</textPath></text><line stroke="#e1ed5e" stroke-width="0.3" x1="26.63291911575756" x2="22.317208475507996" y1="142.92168965132927" y2="145.44649492493687" /><path d="M 25.769776987707644 143.4266507060508 a86.0,86.0 0 0,1 -11.730757126820373,-40.83630448921669" fill="none" id="id117" stroke="none" /><text fill="#e1ed5e" style="font-size:6.75px; font-family:Arial;" text-anchor="middle"><textPath startOffset="21.46611528233685" xlink:href="#id117">September</textPath></text><line stroke="#e1ed5e" stroke-width="0.3" x1="15.007084014347285" x2="10.007500721073583" y1="101.09737516637583" y2="101.16192664675087" /><path d="M 14.007167355692545 101.11028546245083 a86.0,86.0 0 0,1 10.666146001902534,-42.60595125391555" fill="none" id="id118" stroke="none" /><text fill="#e1ed5e" style="font-size:6.75px; font-family:Arial;" text-anchor="middle"><textPath startOffset="22.20632615414155" xlink:href="#id118">October</textPath></text><line stroke="#e1ed5e" stroke-width="0.3" x1="26.266209847984243" x2="21.928928074336255" y1="57.711370442889674" y2="55.22380399835377" /><path d="M 25.398753493254645 57.213857153982495 a86.0,86.0 0 0,1 29.58750427330803,-30.492523968695096" fill="none" id="id119" stroke="none" /><text fill="#e1ed5e" style="font-size:6.75px; font-family:Arial;" text-anchor="middle"><textPath startOffset="21.46611528233685" xlink:href="#id119">November</textPath></text><line stroke="#e1ed5e" stroke-width="0.3" x1="56.762969772571076" x2="54.21961505331055" y1="26.818313649435495" y2="22.513508569990535" /><path d="M 56.25429882871897 25.957352633546506 a86.0,86.0 0 0,1 42.265352541879196,-11.944610805530505" fill="none" id="id120" stroke="none" /><text fill="#e1ed5e" style="font-size:6.75px; font-family:Arial;" text-anchor="middle"><textPath startOffset="22.20632615414155" xlink:href="#id120">December</textPath></text></svg>